<svg xmlns="http://www.w3.org/2000/svg" xmlns:xlink="http://www.w3.org/1999/xlink" width="500" zoomAndPan="magnify" viewBox="0 0 375 374.999991" height="500" preserveAspectRatio="xMidYMid meet" version="1.0"><defs><g/><clipPath id="ce7dfa9852"><path d="M 178 185 L 203 185 L 203 209.929688 L 178 209.929688 Z M 178 185 " clip-rule="nonzero"/></clipPath><clipPath id="ae1ba321d6"><path d="M 124.851562 128 L 202 128 L 202 169 L 124.851562 169 Z M 124.851562 128 " clip-rule="nonzero"/></clipPath><clipPath id="5603c01437"><path d="M 215 112 L 250.101562 112 L 250.101562 133 L 215 133 Z M 215 112 " clip-rule="nonzero"/></clipPath><clipPath id="e5232b1ac2"><path d="M 130 83.929688 L 212 83.929688 L 212 133 L 130 133 Z M 130 83.929688 " clip-rule="nonzero"/></clipPath></defs><rect x="-37.5" width="450" fill="#ffffff" y="-37.499999" height="449.999989" fill-opacity="1"/><rect x="-37.5" width="450" fill="#ffffff" y="-37.499999" height="449.999989" fill-opacity="1"/><rect x="-37.5" width="450" fill="#ffffff" y="-37.499999" height="449.999989" fill-opacity="1"/><path fill="#e6ba95" d="M 244.804688 141.617188 C 230.972656 142.042969 230.628906 142.382812 230.207031 156.191406 C 229.78125 142.382812 229.4375 142.042969 215.609375 141.617188 C 229.4375 141.191406 229.78125 140.851562 230.207031 127.042969 C 230.628906 140.851562 230.972656 141.191406 244.804688 141.617188 " fill-opacity="1" fill-rule="nonzero"/><path fill="#e6ba95" d="M 154.457031 180.839844 C 143.105469 181.1875 142.824219 181.46875 142.476562 192.804688 C 142.128906 181.46875 141.84375 181.1875 130.492188 180.839844 C 141.84375 180.492188 142.128906 180.210938 142.476562 168.875 C 142.824219 180.210938 143.105469 180.492188 154.457031 180.839844 " fill-opacity="1" fill-rule="nonzero"/><g clip-path="url(#ce7dfa9852)"><path fill="#006778" d="M 202.4375 197.894531 C 191.085938 198.246094 190.804688 198.527344 190.457031 209.859375 C 190.109375 198.527344 189.828125 198.246094 178.476562 197.894531 C 189.828125 197.546875 190.109375 197.265625 190.457031 185.933594 C 190.804688 197.265625 191.085938 197.546875 202.4375 197.894531 " fill-opacity="1" fill-rule="nonzero"/></g><path fill="#006778" d="M 243.871094 163.242188 C 234.570312 163.527344 234.339844 163.757812 234.054688 173.042969 C 233.769531 163.757812 233.539062 163.527344 224.238281 163.242188 C 233.539062 162.957031 233.769531 162.726562 234.054688 153.4375 C 234.339844 162.726562 234.570312 162.957031 243.871094 163.242188 " fill-opacity="1" fill-rule="nonzero"/><path fill="#e6ba95" d="M 201.101562 128.382812 C 194.375 128.589844 194.207031 128.757812 194 135.472656 C 193.792969 128.757812 193.628906 128.589844 186.898438 128.382812 C 193.628906 128.175781 193.792969 128.011719 194 121.296875 C 194.207031 128.011719 194.375 128.175781 201.101562 128.382812 " fill-opacity="1" fill-rule="nonzero"/><path fill="#006778" d="M 171.667969 148.667969 C 157.839844 149.09375 157.496094 149.433594 157.070312 163.242188 C 156.648438 149.433594 156.304688 149.09375 142.476562 148.667969 C 156.304688 148.246094 156.648438 147.902344 157.070312 134.09375 C 157.496094 147.902344 157.839844 148.246094 171.667969 148.667969 " fill-opacity="1" fill-rule="nonzero"/><g clip-path="url(#ae1ba321d6)"><path fill="#006778" d="M 134.609375 145.929688 C 134.609375 157.453125 156.683594 166.789062 183.914062 166.789062 C 189.957031 166.789062 195.75 166.332031 201.101562 165.488281 C 193.355469 167.628906 184.097656 168.875 174.152344 168.875 C 146.921875 168.875 124.847656 159.539062 124.847656 148.015625 C 124.847656 139.054688 138.210938 131.410156 156.964844 128.460938 C 143.503906 132.183594 134.609375 138.617188 134.609375 145.929688 " fill-opacity="1" fill-rule="nonzero"/></g><path fill="#e6ba95" d="M 190.457031 179.882812 C 206.90625 179.882812 221.929688 177.304688 233.390625 173.042969 C 224.921875 179.371094 208.867188 183.640625 190.457031 183.640625 C 172.046875 183.640625 155.992188 179.371094 147.523438 173.042969 C 158.984375 177.304688 174.007812 179.882812 190.457031 179.882812 " fill-opacity="1" fill-rule="nonzero"/><path fill="#006778" d="M 172.191406 122.660156 L 164.710938 122.660156 L 164.710938 115.195312 L 172.191406 115.195312 L 172.191406 122.660156 " fill-opacity="1" fill-rule="nonzero"/><path fill="#006778" d="M 182.0625 122.660156 L 174.585938 122.660156 L 174.585938 115.195312 L 182.0625 115.195312 L 182.0625 122.660156 " fill-opacity="1" fill-rule="nonzero"/><path fill="#006778" d="M 172.191406 132.667969 L 164.710938 132.667969 L 164.710938 125.199219 L 172.191406 125.199219 L 172.191406 132.667969 " fill-opacity="1" fill-rule="nonzero"/><path fill="#006778" d="M 182.0625 132.667969 L 174.585938 132.667969 L 174.585938 125.199219 L 182.0625 125.199219 L 182.0625 132.667969 " fill-opacity="1" fill-rule="nonzero"/><g clip-path="url(#5603c01437)"><path fill="#006778" d="M 250.101562 132.785156 L 217.203125 112.316406 L 215.136719 118.054688 Z M 250.101562 132.785156 " fill-opacity="1" fill-rule="nonzero"/></g><g clip-path="url(#e5232b1ac2)"><path fill="#006778" d="M 211.667969 108.871094 L 171.667969 83.984375 L 130.8125 132.785156 L 171.667969 99.742188 L 209.253906 115.578125 L 211.667969 108.871094 " fill-opacity="1" fill-rule="nonzero"/></g><path fill="#e6ba95" d="M 212.894531 149.996094 C 212.898438 149.980469 212.898438 149.953125 212.894531 149.921875 C 212.839844 149.585938 212.441406 149.230469 211.929688 149.042969 L 192.269531 141.75 C 191.761719 141.5625 191.230469 141.570312 190.964844 141.789062 C 190.941406 141.808594 190.921875 141.828125 190.910156 141.84375 C 186.519531 148.726562 171.667969 152.917969 171.667969 152.917969 C 174.746094 154.136719 178.109375 154.558594 180.757812 154.03125 C 186.554688 152.878906 189.109375 150.46875 189.109375 150.46875 C 187.085938 154.425781 179.976562 155.625 178.914062 155.78125 L 178.960938 155.800781 C 182.476562 157.183594 186.257812 157.414062 188.796875 156.417969 C 191.875 155.207031 193.257812 153.828125 193.257812 153.828125 C 192.300781 155.851562 190.101562 157.28125 187.921875 158.046875 C 186.753906 158.457031 195.671875 161.066406 195.867188 157.617188 C 195.953125 156.140625 196.679688 154.675781 197.886719 153.582031 C 197.886719 153.582031 196.601562 155.972656 197.457031 159.84375 C 197.898438 161.851562 200.292969 163.960938 203.375 165.046875 L 203.425781 165.066406 C 202.554688 163.152344 201.988281 160.980469 202.527344 159.046875 C 202.527344 159.046875 202.554688 159.449219 202.726562 160.160156 C 203.457031 163.175781 207.117188 166.367188 211.757812 167.984375 L 211.820312 168.007812 C 210.34375 166.097656 207.375 161.691406 208.25 158.117188 C 208.25 158.117188 208.496094 160.535156 210.660156 164.027344 C 212.421875 166.859375 216.066406 169.488281 220.230469 170.925781 L 220.234375 170.925781 C 220.234375 170.925781 211.296875 158.398438 212.894531 149.996094 " fill-opacity="1" fill-rule="nonzero"/><path fill="#e6ba95" d="M 205.589844 139.398438 L 205.597656 139.378906 L 202.894531 138.40625 C 197.855469 136.933594 193.011719 137.570312 190.457031 139.882812 L 214.15625 148.667969 C 213.730469 145.226562 210.429688 141.558594 205.589844 139.398438 " fill-opacity="1" fill-rule="nonzero"/><path fill="#e6ba95" d="M 203.027344 137.507812 L 206.066406 138.597656 L 216.761719 108.902344 C 217.117188 108.667969 217.40625 108.324219 217.5625 107.894531 L 222.382812 94.503906 C 222.761719 93.449219 222.21875 92.292969 221.164062 91.914062 C 220.113281 91.535156 218.953125 92.082031 218.574219 93.132812 L 213.75 106.527344 C 213.59375 106.957031 213.597656 107.40625 213.722656 107.8125 L 203.027344 137.507812 " fill-opacity="1" fill-rule="nonzero"/><g fill="#006778" fill-opacity="1"><g transform="translate(84.309547, 238.159496)"><g><path d="M 17.578125 0 L 2.78125 0 L 2.78125 -23.796875 L 8.734375 -23.796875 L 8.734375 -5.375 L 17.578125 -5.375 Z M 17.578125 0 "/></g></g></g><g fill="#006778" fill-opacity="1"><g transform="translate(102.701438, 238.159496)"><g><path d="M 10.46875 -18.125 C 12.144531 -18.125 13.703125 -17.738281 15.140625 -16.96875 C 16.585938 -16.195312 17.742188 -15.113281 18.609375 -13.71875 C 19.484375 -12.320312 19.921875 -10.738281 19.921875 -8.96875 C 19.921875 -8.445312 19.863281 -7.847656 19.75 -7.171875 L 6.625 -7.171875 C 6.851562 -6.109375 7.304688 -5.28125 7.984375 -4.6875 C 8.671875 -4.101562 9.523438 -3.8125 10.546875 -3.8125 C 11.359375 -3.8125 12.039062 -3.957031 12.59375 -4.25 C 13.15625 -4.539062 13.628906 -4.984375 14.015625 -5.578125 L 19.40625 -5.578125 C 18.75 -3.785156 17.648438 -2.332031 16.109375 -1.21875 C 14.566406 -0.113281 12.6875 0.4375 10.46875 0.4375 C 8.769531 0.4375 7.191406 0.0507812 5.734375 -0.71875 C 4.285156 -1.488281 3.125 -2.578125 2.25 -3.984375 C 1.382812 -5.390625 0.953125 -7.007812 0.953125 -8.84375 C 0.953125 -10.675781 1.382812 -12.296875 2.25 -13.703125 C 3.125 -15.109375 4.285156 -16.195312 5.734375 -16.96875 C 7.191406 -17.738281 8.769531 -18.125 10.46875 -18.125 Z M 10.46875 -13.84375 C 9.519531 -13.84375 8.707031 -13.570312 8.03125 -13.03125 C 7.363281 -12.5 6.90625 -11.722656 6.65625 -10.703125 L 14.34375 -10.703125 C 14.164062 -11.640625 13.75 -12.394531 13.09375 -12.96875 C 12.4375 -13.550781 11.5625 -13.84375 10.46875 -13.84375 Z M 10.46875 -13.84375 "/></g></g></g><g fill="#006778" fill-opacity="1"><g transform="translate(123.575048, 238.159496)"><g><path d="M 10.03125 -6.5 L 14.140625 -17.6875 L 19.953125 -17.6875 L 12.546875 0 L 7.484375 0 L 0.0625 -17.6875 L 5.921875 -17.6875 Z M 10.03125 -6.5 "/></g></g></g><g fill="#006778" fill-opacity="1"><g transform="translate(143.564762, 238.159496)"><g><path d="M 12.640625 -18.125 C 14.023438 -18.125 15.253906 -17.800781 16.328125 -17.15625 C 17.410156 -16.507812 18.253906 -15.617188 18.859375 -14.484375 C 19.472656 -13.347656 19.78125 -12.054688 19.78125 -10.609375 L 19.78125 0 L 14.109375 0 L 14.109375 -9.421875 C 14.109375 -10.523438 13.84375 -11.40625 13.3125 -12.0625 C 12.78125 -12.726562 12.023438 -13.0625 11.046875 -13.0625 C 10.097656 -13.0625 9.320312 -12.722656 8.71875 -12.046875 C 8.113281 -11.378906 7.8125 -10.503906 7.8125 -9.421875 L 7.8125 0 L 2.140625 0 L 2.140625 -17.6875 L 7.40625 -17.6875 L 7.40625 -15.984375 C 8.8125 -17.410156 10.554688 -18.125 12.640625 -18.125 Z M 12.640625 -18.125 "/></g></g></g><g fill="#006778" fill-opacity="1"><g transform="translate(165.356268, 238.159496)"><g><path d="M 10.46875 -18.125 C 12.144531 -18.125 13.703125 -17.738281 15.140625 -16.96875 C 16.585938 -16.195312 17.742188 -15.113281 18.609375 -13.71875 C 19.484375 -12.320312 19.921875 -10.738281 19.921875 -8.96875 C 19.921875 -8.445312 19.863281 -7.847656 19.75 -7.171875 L 6.625 -7.171875 C 6.851562 -6.109375 7.304688 -5.28125 7.984375 -4.6875 C 8.671875 -4.101562 9.523438 -3.8125 10.546875 -3.8125 C 11.359375 -3.8125 12.039062 -3.957031 12.59375 -4.25 C 13.15625 -4.539062 13.628906 -4.984375 14.015625 -5.578125 L 19.40625 -5.578125 C 18.75 -3.785156 17.648438 -2.332031 16.109375 -1.21875 C 14.566406 -0.113281 12.6875 0.4375 10.46875 0.4375 C 8.769531 0.4375 7.191406 0.0507812 5.734375 -0.71875 C 4.285156 -1.488281 3.125 -2.578125 2.25 -3.984375 C 1.382812 -5.390625 0.953125 -7.007812 0.953125 -8.84375 C 0.953125 -10.675781 1.382812 -12.296875 2.25 -13.703125 C 3.125 -15.109375 4.285156 -16.195312 5.734375 -16.96875 C 7.191406 -17.738281 8.769531 -18.125 10.46875 -18.125 Z M 10.46875 -13.84375 C 9.519531 -13.84375 8.707031 -13.570312 8.03125 -13.03125 C 7.363281 -12.5 6.90625 -11.722656 6.65625 -10.703125 L 14.34375 -10.703125 C 14.164062 -11.640625 13.75 -12.394531 13.09375 -12.96875 C 12.4375 -13.550781 11.5625 -13.84375 10.46875 -13.84375 Z M 12.203125 -19.859375 L 8.171875 -19.859375 L 11.53125 -25.296875 L 16.125 -25.296875 Z M 12.203125 -19.859375 "/></g></g></g><g fill="#006778" fill-opacity="1"><g transform="translate(186.229879, 238.159496)"><g/></g></g><g fill="#006778" fill-opacity="1"><g transform="translate(196.564694, 238.159496)"><g><path d="M 10.578125 0.4375 C 8.804688 0.4375 7.269531 0.0820312 5.96875 -0.625 C 4.664062 -1.34375 3.671875 -2.351562 2.984375 -3.65625 C 2.304688 -4.957031 1.96875 -6.46875 1.96875 -8.1875 L 1.96875 -17.6875 L 7.65625 -17.6875 L 7.65625 -8.03125 C 7.65625 -6.957031 7.921875 -6.117188 8.453125 -5.515625 C 8.984375 -4.921875 9.691406 -4.625 10.578125 -4.625 C 11.460938 -4.625 12.171875 -4.921875 12.703125 -5.515625 C 13.234375 -6.117188 13.5 -6.957031 13.5 -8.03125 L 13.5 -17.6875 L 19.171875 -17.6875 L 19.171875 -8.1875 C 19.171875 -6.46875 18.832031 -4.957031 18.15625 -3.65625 C 17.476562 -2.351562 16.484375 -1.34375 15.171875 -0.625 C 13.867188 0.0820312 12.335938 0.4375 10.578125 0.4375 Z M 12.203125 -19.859375 L 8.171875 -19.859375 L 11.53125 -25.296875 L 16.125 -25.296875 Z M 12.203125 -19.859375 "/></g></g></g><g fill="#006778" fill-opacity="1"><g transform="translate(217.710273, 238.159496)"><g><path d="M 12.890625 -9.078125 L 20.609375 0 L 14.046875 0 L 7.984375 -7.28125 L 7.984375 0 L 2.3125 0 L 2.3125 -24.484375 L 7.984375 -24.484375 L 7.984375 -10.640625 L 13.734375 -17.6875 L 20.0625 -17.6875 Z M 12.890625 -9.078125 "/></g></g></g><g fill="#006778" fill-opacity="1"><g transform="translate(238.243924, 238.159496)"><g><path d="M 7.984375 0 L 2.3125 0 L 2.3125 -24.484375 L 7.984375 -24.484375 Z M 7.984375 0 "/></g></g></g><g fill="#006778" fill-opacity="1"><g transform="translate(248.57874, 238.159496)"><g><path d="M 7.8125 0 L 2.140625 0 L 2.140625 -17.6875 L 7.8125 -17.6875 Z M 7.890625 -20.40625 L 2.03125 -20.40625 L 2.03125 -24.953125 L 7.890625 -24.953125 Z M 7.890625 -20.40625 "/></g></g></g><g fill="#006778" fill-opacity="1"><g transform="translate(258.573597, 238.159496)"><g><path d="M 14.859375 -24.484375 L 20.5 -24.484375 L 20.5 0 L 15.265625 0 L 15.265625 -1.734375 C 13.953125 -0.285156 12.101562 0.4375 9.71875 0.4375 C 8.269531 0.4375 6.875 0.0546875 5.53125 -0.703125 C 4.195312 -1.460938 3.109375 -2.550781 2.265625 -3.96875 C 1.429688 -5.382812 1.015625 -7.007812 1.015625 -8.84375 C 1.015625 -10.675781 1.429688 -12.300781 2.265625 -13.71875 C 3.109375 -15.132812 4.195312 -16.222656 5.53125 -16.984375 C 6.875 -17.742188 8.269531 -18.125 9.71875 -18.125 C 11.875 -18.125 13.585938 -17.519531 14.859375 -16.3125 Z M 10.875 -4.59375 C 12.101562 -4.59375 13.117188 -4.992188 13.921875 -5.796875 C 14.722656 -6.597656 15.125 -7.613281 15.125 -8.84375 C 15.125 -10.0625 14.722656 -11.070312 13.921875 -11.875 C 13.117188 -12.6875 12.101562 -13.09375 10.875 -13.09375 C 9.65625 -13.09375 8.640625 -12.6875 7.828125 -11.875 C 7.023438 -11.070312 6.625 -10.0625 6.625 -8.84375 C 6.625 -7.613281 7.023438 -6.597656 7.828125 -5.796875 C 8.640625 -4.992188 9.65625 -4.59375 10.875 -4.59375 Z M 10.875 -4.59375 "/></g></g></g><g fill="#006778" fill-opacity="1"><g transform="translate(281.418978, 238.159496)"><g><path d="M 7.109375 0 L 2.140625 0 L 2.140625 -5.265625 L 7.109375 -5.265625 Z M 7.109375 0 "/></g></g></g><g fill="#e6ba95" fill-opacity="1"><g transform="translate(146.908056, 288.53778)"><g><path d="M 2.78125 0.078125 C 2.363281 0.078125 1.992188 -0.0078125 1.671875 -0.1875 C 1.359375 -0.363281 1.113281 -0.613281 0.9375 -0.9375 C 0.769531 -1.269531 0.6875 -1.644531 0.6875 -2.0625 L 0.6875 -5.59375 L 1.3125 -5.59375 L 1.3125 -2.0625 C 1.3125 -1.601562 1.441406 -1.226562 1.703125 -0.9375 C 1.972656 -0.65625 2.332031 -0.515625 2.78125 -0.515625 C 3.226562 -0.515625 3.582031 -0.65625 3.84375 -0.9375 C 4.101562 -1.226562 4.234375 -1.601562 4.234375 -2.0625 L 4.234375 -5.59375 L 4.875 -5.59375 L 4.875 -2.0625 C 4.875 -1.644531 4.785156 -1.269531 4.609375 -0.9375 C 4.441406 -0.613281 4.195312 -0.363281 3.875 -0.1875 C 3.5625 -0.0078125 3.195312 0.078125 2.78125 0.078125 Z M 2.78125 0.078125 "/></g></g></g><g fill="#e6ba95" fill-opacity="1"><g transform="translate(155.100124, 288.53778)"><g><path d="M 2.078125 -2.890625 L 4.71875 0 L 3.875 0 L 1.40625 -2.71875 L 1.40625 0 L 0.765625 0 L 0.765625 -5.59375 L 1.40625 -5.59375 L 1.40625 -3 L 3.75 -5.59375 L 4.53125 -5.59375 Z M 2.078125 -2.890625 "/></g></g></g><g fill="#e6ba95" fill-opacity="1"><g transform="translate(162.500176, 288.53778)"><g><path d="M 3.5625 0 L 0.765625 0 L 0.765625 -5.59375 L 1.40625 -5.59375 L 1.40625 -0.59375 L 3.5625 -0.59375 Z M 3.5625 0 "/></g></g></g><g fill="#e6ba95" fill-opacity="1"><g transform="translate(168.980223, 288.53778)"><g><path d="M 1.4375 0 L 0.796875 0 L 0.796875 -5.59375 L 1.4375 -5.59375 Z M 1.4375 0 "/></g></g></g><g fill="#e6ba95" fill-opacity="1"><g transform="translate(173.860258, 288.53778)"><g><path d="M 0.765625 0 L 0.765625 -5.59375 L 2.234375 -5.59375 C 2.859375 -5.59375 3.398438 -5.476562 3.859375 -5.25 C 4.328125 -5.019531 4.6875 -4.691406 4.9375 -4.265625 C 5.195312 -3.835938 5.328125 -3.347656 5.328125 -2.796875 C 5.328125 -2.242188 5.195312 -1.753906 4.9375 -1.328125 C 4.6875 -0.910156 4.328125 -0.582031 3.859375 -0.34375 C 3.398438 -0.113281 2.859375 0 2.234375 0 Z M 2.234375 -0.59375 C 2.734375 -0.59375 3.164062 -0.679688 3.53125 -0.859375 C 3.894531 -1.046875 4.171875 -1.304688 4.359375 -1.640625 C 4.554688 -1.972656 4.65625 -2.359375 4.65625 -2.796875 C 4.65625 -3.234375 4.554688 -3.617188 4.359375 -3.953125 C 4.171875 -4.285156 3.894531 -4.539062 3.53125 -4.71875 C 3.164062 -4.90625 2.734375 -5 2.234375 -5 L 1.40625 -5 L 1.40625 -0.59375 Z M 2.234375 -0.59375 "/></g></g></g><g fill="#e6ba95" fill-opacity="1"><g transform="translate(182.268318, 288.53778)"><g/></g></g><g fill="#e6ba95" fill-opacity="1"><g transform="translate(187.148353, 288.53778)"><g><path d="M 2.296875 0.078125 C 1.910156 0.078125 1.578125 0.00390625 1.296875 -0.140625 C 1.015625 -0.285156 0.796875 -0.484375 0.640625 -0.734375 C 0.492188 -0.992188 0.414062 -1.28125 0.40625 -1.59375 L 1.046875 -1.59375 C 1.054688 -1.28125 1.171875 -1.019531 1.390625 -0.8125 C 1.609375 -0.613281 1.910156 -0.515625 2.296875 -0.515625 C 2.640625 -0.515625 2.914062 -0.597656 3.125 -0.765625 C 3.332031 -0.929688 3.4375 -1.15625 3.4375 -1.4375 C 3.4375 -1.65625 3.378906 -1.832031 3.265625 -1.96875 C 3.148438 -2.113281 3.003906 -2.226562 2.828125 -2.3125 C 2.660156 -2.394531 2.429688 -2.476562 2.140625 -2.5625 C 1.785156 -2.6875 1.503906 -2.800781 1.296875 -2.90625 C 1.085938 -3.007812 0.910156 -3.164062 0.765625 -3.375 C 0.617188 -3.582031 0.546875 -3.859375 0.546875 -4.203125 C 0.546875 -4.472656 0.617188 -4.71875 0.765625 -4.9375 C 0.910156 -5.164062 1.113281 -5.347656 1.375 -5.484375 C 1.644531 -5.617188 1.945312 -5.6875 2.28125 -5.6875 C 2.59375 -5.6875 2.878906 -5.613281 3.140625 -5.46875 C 3.398438 -5.332031 3.601562 -5.144531 3.75 -4.90625 C 3.90625 -4.664062 3.988281 -4.40625 4 -4.125 L 3.359375 -4.125 C 3.347656 -4.40625 3.238281 -4.632812 3.03125 -4.8125 C 2.820312 -4.988281 2.5625 -5.078125 2.25 -5.078125 C 1.945312 -5.078125 1.695312 -5 1.5 -4.84375 C 1.300781 -4.695312 1.203125 -4.484375 1.203125 -4.203125 C 1.203125 -3.992188 1.253906 -3.820312 1.359375 -3.6875 C 1.472656 -3.5625 1.613281 -3.457031 1.78125 -3.375 C 1.945312 -3.300781 2.171875 -3.21875 2.453125 -3.125 C 2.796875 -3.007812 3.078125 -2.894531 3.296875 -2.78125 C 3.523438 -2.664062 3.710938 -2.5 3.859375 -2.28125 C 4.015625 -2.070312 4.09375 -1.789062 4.09375 -1.4375 C 4.09375 -1.15625 4.015625 -0.894531 3.859375 -0.65625 C 3.703125 -0.425781 3.488281 -0.242188 3.21875 -0.109375 C 2.945312 0.015625 2.640625 0.078125 2.296875 0.078125 Z M 2.296875 0.078125 "/></g></g></g><g fill="#e6ba95" fill-opacity="1"><g transform="translate(194.284409, 288.53778)"><g><path d="M 2.28125 0 L 1.640625 0 L 1.640625 -5 L 0.203125 -5 L 0.203125 -5.59375 L 3.71875 -5.59375 L 3.71875 -5 L 2.28125 -5 Z M 2.28125 0 "/></g></g></g><g fill="#e6ba95" fill-opacity="1"><g transform="translate(200.844452, 288.53778)"><g><path d="M 5.203125 0 L 4.515625 0 L 3.90625 -1.515625 L 1.4375 -1.515625 L 0.828125 0 L 0.15625 0 L 2.4375 -5.59375 L 2.921875 -5.59375 Z M 3.671875 -2.125 L 2.671875 -4.640625 L 1.671875 -2.125 Z M 3.671875 -2.125 "/></g></g></g><g fill="#e6ba95" fill-opacity="1"><g transform="translate(208.844512, 288.53778)"><g><path d="M 2.453125 -1.234375 L 4.015625 -5.59375 L 4.6875 -5.59375 L 2.640625 0 L 2.234375 0 L 0.203125 -5.59375 L 0.890625 -5.59375 Z M 2.453125 -1.234375 "/></g></g></g><g fill="#e6ba95" fill-opacity="1"><g transform="translate(216.364569, 288.53778)"><g><path d="M 3.234375 -3 C 3.523438 -2.894531 3.757812 -2.722656 3.9375 -2.484375 C 4.125 -2.242188 4.21875 -1.960938 4.21875 -1.640625 C 4.21875 -1.328125 4.132812 -1.046875 3.96875 -0.796875 C 3.8125 -0.546875 3.585938 -0.347656 3.296875 -0.203125 C 3.015625 -0.0664062 2.6875 0 2.3125 0 L 0.765625 0 L 0.765625 -5.59375 L 2.234375 -5.59375 C 2.597656 -5.59375 2.910156 -5.53125 3.171875 -5.40625 C 3.429688 -5.28125 3.628906 -5.101562 3.765625 -4.875 C 3.898438 -4.65625 3.96875 -4.40625 3.96875 -4.125 C 3.96875 -3.882812 3.898438 -3.660156 3.765625 -3.453125 C 3.628906 -3.253906 3.453125 -3.101562 3.234375 -3 Z M 1.40625 -5 L 1.40625 -3.234375 L 2.234375 -3.234375 C 2.566406 -3.234375 2.828125 -3.316406 3.015625 -3.484375 C 3.210938 -3.648438 3.3125 -3.863281 3.3125 -4.125 C 3.3125 -4.375 3.210938 -4.582031 3.015625 -4.75 C 2.828125 -4.914062 2.566406 -5 2.234375 -5 Z M 2.3125 -0.59375 C 2.6875 -0.59375 2.984375 -0.691406 3.203125 -0.890625 C 3.429688 -1.097656 3.546875 -1.347656 3.546875 -1.640625 C 3.546875 -1.929688 3.429688 -2.175781 3.203125 -2.375 C 2.984375 -2.582031 2.6875 -2.6875 2.3125 -2.6875 L 1.40625 -2.6875 L 1.40625 -0.59375 Z M 2.3125 -0.59375 "/></g></g></g><g fill="#e6ba95" fill-opacity="1"><g transform="translate(223.620618, 288.53778)"><g><path d="M 2.25 -3.078125 L 3.640625 -5.59375 L 4.359375 -5.59375 L 2.5625 -2.4375 L 2.5625 0 L 1.921875 0 L 1.921875 -2.4375 L 0.125 -5.59375 L 0.84375 -5.59375 Z M 2.25 -3.078125 "/></g></g></g></svg>