<!-- Generated by IcoMoon.io -->
<svg version="1.1" xmlns="http://www.w3.org/2000/svg" width="32" height="32" viewBox="0 0 32 32">
<title>logo</title>
<path fill="#fff" d="M-3.2-3.2h38.4v38.4h-38.4v-38.4z"></path>
<path fill="#025260" d="M-3.2-3.2h38.4v38.4h-38.4v-38.4z"></path>
<path fill="#e6ba95" d="M20.89 12.085c-1.18 0.036-1.21 0.065-1.246 1.244-0.036-1.178-0.066-1.207-1.246-1.244 1.18-0.036 1.209-0.065 1.246-1.244 0.036 1.178 0.065 1.207 1.246 1.244z"></path>
<path fill="#e6ba95" d="M13.18 15.432c-0.969 0.030-0.993 0.054-1.022 1.021-0.030-0.967-0.054-0.991-1.023-1.021 0.969-0.030 0.993-0.054 1.023-1.021 0.030 0.967 0.054 0.991 1.022 1.021z"></path>
<path fill="#fff" d="M17.275 16.887c-0.969 0.030-0.993 0.054-1.022 1.021-0.030-0.967-0.054-0.991-1.022-1.021 0.969-0.030 0.993-0.054 1.022-1.021 0.030 0.967 0.054 0.991 1.022 1.021z"></path>
<path fill="#fff" d="M20.81 13.93c-0.794 0.024-0.813 0.044-0.838 0.836-0.024-0.792-0.044-0.812-0.838-0.836 0.794-0.024 0.813-0.044 0.838-0.837 0.024 0.793 0.044 0.812 0.838 0.837z"></path>
<path fill="#e6ba95" d="M17.161 10.955c-0.574 0.018-0.588 0.032-0.606 0.605-0.018-0.573-0.032-0.587-0.606-0.605 0.574-0.018 0.588-0.032 0.606-0.605 0.018 0.573 0.032 0.587 0.606 0.605z"></path>
<path fill="#fff" d="M14.649 12.686c-1.18 0.036-1.209 0.065-1.246 1.244-0.036-1.178-0.065-1.207-1.245-1.244 1.18-0.036 1.209-0.065 1.245-1.244 0.036 1.178 0.066 1.208 1.246 1.244z"></path>
<path fill="#fff" d="M11.487 12.453c0 0.983 1.884 1.78 4.207 1.78 0.516 0 1.010-0.039 1.467-0.111-0.661 0.183-1.451 0.289-2.3 0.289-2.324 0-4.207-0.797-4.207-1.78 0-0.765 1.14-1.417 2.741-1.669-1.149 0.318-1.908 0.867-1.908 1.491z"></path>
<path fill="#e6ba95" d="M16.252 15.35c1.404 0 2.686-0.22 3.664-0.584-0.723 0.54-2.093 0.904-3.664 0.904s-2.941-0.364-3.664-0.904c0.978 0.364 2.26 0.584 3.664 0.584z"></path>
<path fill="#fff" d="M14.694 10.467h-0.638v-0.637h0.638v0.637z"></path>
<path fill="#fff" d="M15.536 10.467h-0.638v-0.637h0.638v0.637z"></path>
<path fill="#fff" d="M14.694 11.321h-0.638v-0.637h0.638v0.637z"></path>
<path fill="#fff" d="M15.536 11.321h-0.638v-0.637h0.638v0.637z"></path>
<path fill="#fff" d="M21.342 11.331l-2.807-1.747-0.176 0.49z"></path>
<path fill="#fff" d="M18.062 9.29l-3.413-2.124-3.486 4.164 3.486-2.82 3.207 1.351 0.206-0.572z"></path>
<path fill="#e6ba95" d="M18.167 12.8c0-0.001 0-0.004 0-0.006-0.005-0.029-0.039-0.059-0.082-0.075l-1.678-0.622c-0.043-0.016-0.089-0.015-0.111 0.003-0.002 0.002-0.004 0.003-0.005 0.005-0.375 0.587-1.642 0.945-1.642 0.945 0.263 0.104 0.55 0.14 0.776 0.095 0.495-0.098 0.713-0.304 0.713-0.304-0.173 0.338-0.779 0.44-0.87 0.453l0.004 0.002c0.3 0.118 0.623 0.138 0.839 0.053 0.263-0.103 0.381-0.221 0.381-0.221-0.082 0.173-0.269 0.295-0.455 0.36-0.1 0.035 0.661 0.258 0.678-0.037 0.007-0.126 0.069-0.251 0.172-0.344 0 0-0.11 0.204-0.037 0.534 0.038 0.171 0.242 0.351 0.505 0.444l0.004 0.002c-0.074-0.163-0.123-0.349-0.077-0.514 0 0 0.002 0.034 0.017 0.095 0.062 0.257 0.375 0.53 0.771 0.668l0.005 0.002c-0.126-0.163-0.379-0.539-0.305-0.844 0 0 0.021 0.206 0.206 0.504 0.15 0.242 0.461 0.466 0.817 0.589h0c0 0-0.763-1.069-0.626-1.786z"></path>
<path fill="#e6ba95" d="M17.544 11.895l0.001-0.002-0.231-0.083c-0.43-0.126-0.843-0.071-1.061 0.126l2.022 0.75c-0.036-0.294-0.318-0.607-0.731-0.791z"></path>
<path fill="#e6ba95" d="M17.325 11.734l0.259 0.093 0.913-2.534c0.030-0.020 0.055-0.049 0.068-0.086l0.411-1.143c0.032-0.090-0.014-0.189-0.104-0.221s-0.189 0.014-0.221 0.104l-0.412 1.143c-0.013 0.037-0.013 0.075-0.002 0.11l-0.913 2.534z"></path>
<path fill="#fff" d="M8.694 20.323h-1.263v-2.031h0.508v1.572h0.755z"></path>
<path fill="#fff" d="M9.657 18.776c0.143 0 0.276 0.033 0.399 0.099s0.222 0.158 0.296 0.277c0.075 0.119 0.112 0.254 0.112 0.405 0 0.045-0.005 0.096-0.015 0.153h-1.12c0.019 0.091 0.058 0.161 0.116 0.212s0.131 0.075 0.219 0.075c0.069 0 0.127-0.012 0.175-0.037s0.088-0.063 0.121-0.113h0.46c-0.056 0.153-0.15 0.277-0.281 0.372s-0.292 0.141-0.481 0.141c-0.145 0-0.28-0.033-0.404-0.099s-0.223-0.159-0.297-0.279c-0.074-0.12-0.111-0.258-0.111-0.415s0.037-0.295 0.111-0.415c0.075-0.12 0.174-0.213 0.297-0.279s0.259-0.099 0.404-0.099zM9.657 19.142c-0.081 0-0.15 0.023-0.208 0.069s-0.096 0.112-0.117 0.199h0.656c-0.015-0.080-0.051-0.144-0.107-0.193s-0.131-0.075-0.224-0.075z"></path>
<path fill="#fff" d="M11.401 19.768l0.351-0.955h0.496l-0.632 1.509h-0.432l-0.633-1.509h0.5z"></path>
<path fill="#fff" d="M13.33 18.776c0.118 0 0.223 0.028 0.315 0.083s0.164 0.131 0.216 0.228c0.052 0.097 0.079 0.207 0.079 0.331v0.905h-0.484v-0.804c0-0.094-0.023-0.169-0.068-0.225s-0.11-0.085-0.193-0.085c-0.081 0-0.147 0.029-0.199 0.087s-0.077 0.132-0.077 0.224v0.804h-0.484v-1.509h0.449v0.145c0.12-0.122 0.269-0.183 0.447-0.183z"></path>
<path fill="#fff" d="M15.004 18.776c0.143 0 0.276 0.033 0.399 0.099s0.222 0.158 0.296 0.277c0.075 0.119 0.112 0.254 0.112 0.405 0 0.045-0.005 0.096-0.015 0.153h-1.12c0.019 0.091 0.058 0.161 0.116 0.212s0.131 0.075 0.219 0.075c0.069 0 0.127-0.012 0.175-0.037s0.088-0.063 0.121-0.113h0.46c-0.056 0.153-0.15 0.277-0.281 0.372s-0.292 0.141-0.481 0.141c-0.145 0-0.28-0.033-0.404-0.099s-0.223-0.159-0.297-0.279c-0.074-0.12-0.111-0.258-0.111-0.415s0.037-0.295 0.111-0.415c0.075-0.12 0.174-0.213 0.297-0.279s0.259-0.099 0.404-0.099zM15.004 19.142c-0.081 0-0.15 0.023-0.208 0.069s-0.096 0.112-0.117 0.199h0.656c-0.015-0.080-0.051-0.144-0.107-0.193s-0.131-0.075-0.224-0.075zM15.152 18.628h-0.344l0.287-0.464h0.392z"></path>
<path fill="#fff" d="M17.676 20.36c-0.151 0-0.282-0.030-0.393-0.091-0.111-0.061-0.196-0.147-0.255-0.259s-0.087-0.24-0.087-0.387v-0.811h0.485v0.824c0 0.092 0.023 0.163 0.068 0.215s0.106 0.076 0.181 0.076c0.075 0 0.136-0.025 0.181-0.076s0.068-0.123 0.068-0.215v-0.824h0.484v0.811c0 0.147-0.029 0.276-0.087 0.387s-0.143 0.197-0.255 0.259c-0.111 0.060-0.242 0.091-0.392 0.091zM17.815 18.628h-0.344l0.287-0.464h0.392z"></path>
<path fill="#fff" d="M19.678 19.548l0.659 0.775h-0.56l-0.517-0.621v0.621h-0.484v-2.089h0.484v1.181l0.491-0.601h0.54z"></path>
<path fill="#fff" d="M21.011 20.323h-0.484v-2.089h0.484z"></path>
<path fill="#fff" d="M21.879 20.323h-0.484v-1.509h0.484zM21.885 18.582h-0.5v-0.388h0.5z"></path>
<path fill="#fff" d="M23.333 18.234h0.481v2.089h-0.447v-0.148c-0.112 0.124-0.27 0.185-0.473 0.185-0.124 0-0.243-0.033-0.357-0.097s-0.207-0.158-0.279-0.279c-0.071-0.121-0.107-0.259-0.107-0.416s0.035-0.295 0.107-0.416c0.072-0.121 0.165-0.214 0.279-0.279s0.234-0.097 0.357-0.097c0.184 0 0.33 0.052 0.439 0.155zM22.993 19.931c0.105 0 0.191-0.034 0.26-0.103s0.103-0.155 0.103-0.26c0-0.104-0.034-0.19-0.103-0.259s-0.155-0.104-0.26-0.104c-0.104 0-0.191 0.035-0.26 0.104s-0.103 0.155-0.103 0.259c0 0.105 0.034 0.192 0.103 0.26s0.156 0.103 0.26 0.103z"></path>
<path fill="#fff" d="M24.621 20.323h-0.424v-0.449h0.424z"></path>
<path fill="#fff" d="M12.774 24.629c-0.036 0-0.067-0.007-0.095-0.023s-0.048-0.036-0.063-0.064c-0.014-0.028-0.021-0.060-0.021-0.096v-0.301h0.053v0.301c0 0.039 0.011 0.071 0.033 0.096s0.054 0.036 0.092 0.036c0.038 0 0.068-0.012 0.091-0.036s0.033-0.057 0.033-0.096v-0.301h0.055v0.301c0 0.036-0.008 0.068-0.023 0.096s-0.035 0.049-0.063 0.064c-0.027 0.015-0.058 0.023-0.093 0.023z"></path>
<path fill="#fff" d="M13.413 24.375l0.225 0.247h-0.072l-0.211-0.232v0.232h-0.055v-0.477h0.055v0.221l0.2-0.221h0.067z"></path>
<path fill="#fff" d="M14.171 24.622h-0.239v-0.477h0.055v0.427h0.184z"></path>
<path fill="#fff" d="M14.542 24.622h-0.055v-0.477h0.055z"></path>
<path fill="#fff" d="M14.901 24.622v-0.477h0.125c0.053 0 0.099 0.010 0.139 0.029s0.071 0.048 0.092 0.084c0.022 0.037 0.033 0.078 0.033 0.125s-0.011 0.089-0.033 0.125c-0.021 0.036-0.052 0.064-0.092 0.084s-0.085 0.029-0.139 0.029zM15.027 24.571c0.043 0 0.079-0.007 0.111-0.023s0.055-0.038 0.071-0.067c0.017-0.028 0.025-0.061 0.025-0.099s-0.009-0.070-0.025-0.099c-0.016-0.028-0.040-0.050-0.071-0.065s-0.068-0.024-0.111-0.024h-0.071v0.376z"></path>
<path fill="#fff" d="M16.166 24.629c-0.033 0-0.061-0.006-0.085-0.019s-0.043-0.029-0.056-0.051c-0.013-0.022-0.019-0.047-0.020-0.073h0.055c0.001 0.027 0.011 0.049 0.029 0.067s0.044 0.025 0.077 0.025c0.029 0 0.053-0.007 0.071-0.021s0.027-0.033 0.027-0.057c0-0.019-0.005-0.034-0.015-0.045s-0.022-0.022-0.037-0.029c-0.014-0.007-0.034-0.014-0.059-0.021-0.030-0.011-0.054-0.020-0.072-0.029s-0.033-0.022-0.045-0.040c-0.013-0.018-0.019-0.041-0.019-0.071 0-0.023 0.006-0.044 0.019-0.063s0.030-0.035 0.052-0.047c0.023-0.011 0.049-0.017 0.077-0.017 0.027 0 0.051 0.006 0.073 0.019s0.039 0.028 0.052 0.048c0.013 0.021 0.020 0.043 0.021 0.067h-0.055c-0.001-0.024-0.010-0.043-0.028-0.059s-0.040-0.023-0.067-0.023c-0.026 0-0.047 0.007-0.064 0.020s-0.025 0.031-0.025 0.055c0 0.018 0.004 0.033 0.013 0.044s0.022 0.020 0.036 0.027c0.014 0.006 0.033 0.013 0.057 0.021 0.029 0.010 0.053 0.020 0.072 0.029s0.035 0.024 0.048 0.043c0.013 0.018 0.020 0.042 0.020 0.072 0 0.024-0.007 0.046-0.020 0.067s-0.032 0.035-0.055 0.047c-0.023 0.011-0.049 0.016-0.079 0.016z"></path>
<path fill="#fff" d="M16.774 24.622h-0.055v-0.427h-0.123v-0.051h0.3v0.051h-0.123z"></path>
<path fill="#fff" d="M17.583 24.622h-0.059l-0.052-0.129h-0.211l-0.052 0.129h-0.057l0.195-0.477h0.041zM17.452 24.441l-0.085-0.215-0.085 0.215z"></path>
<path fill="#fff" d="M18.031 24.517l0.133-0.372h0.057l-0.175 0.477h-0.035l-0.173-0.477h0.059z"></path>
<path fill="#fff" d="M18.739 24.366c0.025 0.009 0.045 0.024 0.060 0.044s0.024 0.045 0.024 0.072c0 0.027-0.007 0.051-0.021 0.072s-0.033 0.038-0.057 0.051c-0.024 0.012-0.052 0.017-0.084 0.017h-0.132v-0.477h0.125c0.031 0 0.058 0.005 0.080 0.016s0.039 0.026 0.051 0.045c0.011 0.019 0.017 0.040 0.017 0.064 0 0.021-0.006 0.040-0.017 0.057s-0.027 0.030-0.045 0.039zM18.583 24.195v0.151h0.071c0.028 0 0.051-0.007 0.067-0.021s0.025-0.032 0.025-0.055c0-0.021-0.009-0.039-0.025-0.053s-0.038-0.021-0.067-0.021zM18.66 24.571c0.032 0 0.057-0.008 0.076-0.025s0.029-0.039 0.029-0.064c0-0.025-0.010-0.046-0.029-0.063s-0.044-0.027-0.076-0.027h-0.077v0.179z"></path>
<path fill="#fff" d="M19.274 24.359l0.119-0.215h0.061l-0.153 0.269v0.208h-0.055v-0.208l-0.153-0.269h0.061z"></path>
</svg>
